<svg id="Layer_1" data-name="Layer 1" xmlns="http://www.w3.org/2000/svg" viewBox="0 0 595.28 841.89"><defs><style>.cls-1{fill:#1d1d1b;}</style></defs><title>Artboard 1</title><path class="cls-1" d="M559.45,764.44c-34.88-35.83-125.17-63.54-145.24-72.14a75.92,75.92,0,0,1-21.45-14.07l1.32,2.22-47.22,66.67L307.35,671l66.52-24.49.09.15c-3.32-18.33-1.79-55-1.79-55S390.34,567,397,552.08c9.24-20.62,12.11-42.6,12.11-42.6s19.42-.16,27.79-31.93c10.26-39-13.14-47.06-13.14-47.06s9.55-20.06,12.42-72.61,0-79.07-33.92-105.83c-11.75-9.26-34.88-12.9-34.88-12.9-29.94-25-69.75-26.51-69.75-26.51s-57.33-3.82-93.64,26.75-47.78,65.93-44.91,118.49,12.42,72.61,12.42,72.61-23.4,8.07-13.14,47.06c8.36,31.77,27.79,31.93,27.79,31.93s2.87,22,12.11,42.6c6.67,14.89,24.84,39.58,24.84,39.58s1.53,36.66-1.79,55l.09-.16L287.15,671l-39.51,76.14-47.23-66.67.57-.91a76.25,76.25,0,0,1-19.91,12.76C161,700.9,70.71,728.61,35.83,764.44S0,845.18,0,845.18H595.28S594.32,800.27,559.45,764.44Z"/></svg>